#!OML:ASF H:\Terrain\Patient Classification 1\Walking\liu\liu.ASF
:FULLY-SPECIFIED
:DEGREES
65
root 18.167061 32.613201 -54.644199 10.399780 -23.580400 1.726744
lowerback -9.845540 0.821164 -5.166180
upperback -4.574900 1.270262 4.909800
thorax 0.697232 0.690452 8.028800
lowerneck -44.920399 -7.852880 -23.214199
upperneck 35.912998 -9.114740 25.607599
head 19.991920 -2.906840 11.644080
rclavicle -0.000000 -0.000000
rhumerus -86.485001 26.116600 -181.708206
rradius 76.152000
rwrist -39.164200
rhand -59.597599 -52.267601
rfingers 14.250040
rthumb -6.246300 -112.181396
lclavicle -0.000000 -0.000000
lhumerus -78.233200 -12.401920 177.371399
lradius 42.098999
lwrist -6.517280
lhand 1.683636 -35.180199
lfingers 14.250040
lthumb 52.792801 21.184601
rfemur -8.505960 -1.496282 30.782600
rtibia 114.648399
rfoot 12.727580 -21.007200
rtoes -8.516800
lfemur -53.258400 15.364320 -48.410599
ltibia 64.521400
lfoot -20.869600 15.531100
ltoes -6.949880
66
root 18.206659 32.669201 -54.409599 10.440980 -23.204000 1.234884
lowerback -9.980600 0.632912 -4.508820
upperback -4.370360 0.988508 5.078080
thorax 1.013500 0.537094 7.819420
lowerneck -44.714001 -8.074340 -23.193199
upperneck 35.367802 -9.367920 25.451401
head 19.792700 -3.046740 11.520740
rclavicle 0.000000 -0.000000
rhumerus -86.092400 25.797600 -181.239807
rradius 76.219398
rwrist -39.368801
rhand -59.668201 -51.270802
rfingers 14.250040
rthumb -6.314520 -111.183403
lclavicle 0.000000 -0.000000
lhumerus -76.662804 -11.877120 176.632401
lradius 42.322399
lwrist -7.634800
lhand 1.344118 -35.423000
lfingers 14.250040
lthumb 52.467800 20.990400
rfemur -10.930280 -1.655942 31.827600
rtibia 117.036797
rfoot 10.062860 -21.501801
rtoes -4.571480
lfemur -51.690399 14.728640 -48.031799
ltibia 63.285999
lfoot -20.603001 15.943180
ltoes -8.736480
67
root 18.238880 32.708000 -54.200600 10.517520 -22.668200 1.157318
lowerback -10.243140 0.394874 -4.386360
upperback -4.045900 0.665076 5.151420
thorax 1.521640 0.361584 7.812960
lowerneck -45.132999 -8.145480 -23.085400
upperneck 35.321800 -9.375120 25.122400
head 19.840099 -3.066080 11.379240
rclavicle -0.000000 0.000000
rhumerus -85.573799 25.846001 -180.911606
rradius 76.446999
rwrist -39.723999
rhand -59.651001 -51.339802
rfingers 14.250040
rthumb -6.297920 -111.252800
lclavicle -0.000000 0.000000
lhumerus -74.959396 -13.953900 177.167999
lradius 42.849602
lwrist -6.097340
lhand 1.015174 -34.727600
lfingers 14.250040
lthumb 52.153000 21.732401
rfemur -13.602200 -1.978394 32.533798
rtibia 119.240799
rfoot 7.749720 -21.359400
rtoes -5.234140
lfemur -50.381001 14.182380 -48.104198
ltibia 62.106998
lfoot -20.438400 16.063801
ltoes -8.199900
68
root 18.273560 32.743401 -53.973801 10.665540 -21.987801 1.737902
lowerback -10.549000 0.089820 -4.982480
upperback -4.068000 0.292386 5.098220
thorax 1.698272 0.174269 8.076640
lowerneck -45.239799 -7.907900 -23.225599
upperneck 35.724998 -9.052460 25.263599
head 19.964041 -2.907620 11.522000
rclavicle -0.000000 -0.000000
rhumerus -85.649200 25.856400 -180.681396
rradius 76.741798
rwrist -39.871399
rhand -60.003601 -52.386200
rfingers 14.250040
rthumb -6.638480 -112.294197
lclavicle -0.000000 -0.000000
lhumerus -73.855003 -16.378519 177.980194
lradius 43.270802
lwrist -3.698540
lhand -0.001818 -35.122398
lfingers 14.250040
lthumb 51.179001 21.479401
rfemur -16.254681 -2.524560 32.435398
rtibia 121.204803
rfoot 5.511000 -20.481001
rtoes -9.113500
lfemur -49.212799 13.425420 -48.959000
ltibia 61.041401
lfoot -20.493999 16.114780
ltoes -8.429860
69
root 18.308479 32.785599 -53.740799 10.785080 -21.211201 2.137280
lowerback -10.677420 -0.230950 -5.305180
upperback -4.204260 -0.115074 5.010900
thorax 1.665222 -0.026121 8.145040
lowerneck -45.240398 -7.744400 -23.148399
upperneck 36.278599 -8.915880 25.331200
head 20.141001 -2.831520 11.576220
rclavicle -0.000000 -0.000000
rhumerus -85.932602 25.534401 -180.424393
rradius 77.244003
rwrist -39.830601
rhand -60.133400 -52.250999
rfingers 14.250040
rthumb -6.763780 -112.156799
lclavicle -0.000000 -0.000000
lhumerus -72.537201 -17.089621 177.667999
lradius 43.235600
lwrist -3.863100
lhand -0.860670 -36.630600
lfingers 14.250040
lthumb 50.356201 20.088200
rfemur -18.754379 -2.901880 32.607201
rtibia 122.884804
rfoot 2.377020 -20.047199
rtoes -12.789660
lfemur -48.117199 12.593420 -49.615398
ltibia 60.103600
lfoot -20.621799 16.266479
ltoes -9.816600
70
root 18.346161 32.811600 -53.525398 10.508880 -20.509399 1.961354
lowerback -10.364560 -0.447634 -4.915720
upperback -4.019560 -0.428534 5.001360
thorax 1.708822 -0.187927 7.894980
lowerneck -45.637001 -7.770580 -23.097799
upperneck 36.983799 -9.011580 25.415400
head 20.479200 -2.850420 11.614960
rclavicle -0.000000 -0.000000
rhumerus -85.783203 25.295000 -180.220200
rradius 77.490997
rwrist -40.251598
rhand -60.616798 -49.503601
rfingers 14.250040
rthumb -7.230600 -109.401802
lclavicle -0.000000 -0.000000
lhumerus -70.729202 -17.916920 177.219193
lradius 43.302399
lwrist -4.381320
lhand -1.353944 -36.517799
lfingers 14.250040
lthumb 49.883598 20.267000
rfemur -20.878201 -2.922540 33.509602
rtibia 124.356598
rfoot -1.175830 -21.089600
rtoes -16.962339
lfemur -46.640800 11.747360 -49.528801
ltibia 59.285999
lfoot -20.986601 16.559320
ltoes -10.429080
